<?xml version="1.0" standalone="no"?>
<!DOCTYPE svg PUBLIC "-//W3C//DTD SVG 20010904//EN"
 "http://www.w3.org/TR/2001/REC-SVG-20010904/DTD/svg10.dtd">
<svg version="1.0" xmlns="http://www.w3.org/2000/svg"
 width="180.000000pt" height="180.000000pt" viewBox="0 0 180.000000 180.000000"
 preserveAspectRatio="xMidYMid meet">
<metadata>
Created by potrace 1.11, written by Peter Selinger 2001-2013
</metadata>
<g transform="translate(0.000000,180.000000) scale(0.100000,-0.100000)"
fill="#000000" stroke="none">
<path d="M391 1670 c-33 -8 -49 -35 -34 -57 6 -10 17 -17 24 -15 42 11 72 3
99 -24 29 -29 87 -144 72 -144 -4 0 -23 16 -42 35 -19 19 -37 35 -41 35 -4 0
-14 6 -21 13 -22 22 -96 47 -137 47 -110 0 -189 -159 -152 -307 33 -132 91
-202 182 -218 42 -8 43 -9 29 -35 -32 -59 -3 -139 60 -164 74 -30 138 -13 185
48 l28 36 32 -37 32 -37 -76 -37 c-84 -41 -161 -110 -192 -172 -62 -120 29
-311 184 -386 112 -55 241 -74 497 -75 131 -1 193 16 233 64 33 39 42 92 22
132 -24 50 0 52 72 6 83 -52 137 -68 202 -59 22 3 41 35 41 67 0 20 -10 57
-21 85 -22 50 -22 54 5 124 20 53 20 88 -2 114 -39 46 -124 30 -227 -43 -56
-40 -68 -45 -86 -36 l-21 12 20 21 c61 66 36 162 -52 206 -43 21 -64 24 -155
24 -58 0 -119 -3 -135 -6 -16 -4 -50 -9 -75 -13 -43 -7 -45 -6 -32 10 18 21
20 111 3 128 -20 20 -14 25 36 33 181 27 240 404 80 506 -62 39 -172 10 -255
-68 -65 -61 -66 -61 -43 -3 40 101 78 136 136 126 26 -5 35 -3 43 13 16 29 3
50 -35 57 -44 8 -79 -1 -119 -32 -38 -28 -88 -118 -106 -187 l-12 -49 -23 69
c-49 140 -135 215 -223 193z m287 -1048 c61 -47 15 -139 -62 -125 -37 7 -60
44 -51 83 12 55 69 76 113 42z"/>
</g>
</svg>
